<svg width="25" height="25" viewBox="0 0 25 25" fill="none" xmlns="http://www.w3.org/2000/svg">
<path d="M2.6963 21.5704H22.9185C23.6631 21.5704 24.2667 22.174 24.2667 22.9185C24.2667 23.6631 23.6631 24.2667 22.9185 24.2667H1.34815C0.603586 24.2667 0 23.6631 0 22.9185V1.34815C0 0.603586 0.603586 0 1.34815 0C2.09271 0 2.6963 0.603586 2.6963 1.34815V21.5704Z" fill="#4AD991"/>
<path opacity="0.5" d="M7.72462 15.7529C7.21538 16.2961 6.36223 16.3237 5.81904 15.8144C5.27586 15.3052 5.24834 14.452 5.75757 13.9088L10.8131 8.51625C11.3056 7.99092 12.124 7.94537 12.6718 8.41278L16.6619 11.8177L21.8607 5.23256C22.3221 4.64816 23.1699 4.54843 23.7542 5.00979C24.3386 5.47116 24.4384 6.31891 23.977 6.9033L17.9103 14.5877C17.4365 15.188 16.5588 15.2743 15.9771 14.7779L11.9002 11.299L7.72462 15.7529Z" fill="#4AD991"/>
</svg>
