<svg width="52" height="52" viewBox="0 0 52 52" fill="none" xmlns="http://www.w3.org/2000/svg">
<path opacity="0.21" d="M44 0C48.4183 0 52 3.58172 52 8V44C52 48.4183 48.4183 52 44 52H8C3.58172 52 1.61069e-07 48.4183 0 44V8C0 3.58172 3.58172 1.61064e-07 8 0H44Z" fill="#8280FF"/>
<path d="M26 18.0402V35.3735M26 18.0402C22.2413 16.9322 19.7133 16.6055 15.2947 16.6762C14.9483 16.6828 14.6184 16.8254 14.3762 17.0731C14.134 17.3207 13.9989 17.6537 14 18.0002V32.6668C14 33.4175 14.6213 34.0188 15.3733 34.0095C19.536 33.9522 22.064 34.2922 26 35.3735M26 18.0402C29.7587 16.9322 32.2867 16.6055 36.7053 16.6762C37.0517 16.6828 37.3816 16.8254 37.6238 17.0731C37.866 17.3207 38.0011 17.6537 38 18.0002V32.6668C38 33.4175 37.3787 34.0188 36.6267 34.0095C32.464 33.9522 29.936 34.2922 26 35.3735" stroke="#7C3AED" stroke-width="2" stroke-linecap="round" stroke-linejoin="round"/>
</svg>
