<svg width="52" height="52" viewBox="0 0 52 52" fill="none" xmlns="http://www.w3.org/2000/svg">
<path opacity="0.3" d="M44 0C48.4183 0 52 3.58172 52 8V44C52 48.4183 48.4183 52 44 52H8C3.58172 52 1.61069e-07 48.4183 0 44V8C0 3.58172 3.58172 1.61064e-07 8 0H44Z" fill="#FF9066"/>
<path opacity="0.78" fill-rule="evenodd" clip-rule="evenodd" d="M24.6312 20.4001C24.6512 20.1396 24.8684 19.9385 25.1297 19.9385H25.5475C25.8044 19.9385 26.0195 20.1331 26.045 20.3887L26.6667 26.6051L31.0814 29.1278C31.2372 29.2169 31.3333 29.3825 31.3333 29.562V29.9505C31.3333 30.2802 31.0199 30.5196 30.7018 30.4329L24.3987 28.7139C24.1673 28.6508 24.0133 28.4323 24.0317 28.1931L24.6312 20.4001Z" fill="#FF9066"/>
<path opacity="0.901274" d="M17.8525 11.7812C17.9479 11.3816 18.4575 11.2606 18.7217 11.5752L20.5205 13.7197C22.2036 13.003 24.0552 12.6045 26 12.6045C33.7319 12.6045 39.9998 18.8727 40 26.6045C40 34.3365 33.732 40.6045 26 40.6045C18.268 40.6045 12 34.3365 12 26.6045C12 25.2915 12.1805 24.0205 12.5186 22.8154L15.0859 23.5361C14.8086 24.525 14.667 25.554 14.667 26.6045C14.667 32.8637 19.7408 37.9385 26 37.9385C32.2592 37.9385 37.333 32.8637 37.333 26.6045C37.3328 20.3454 32.2591 15.2715 26 15.2715C24.7318 15.2715 23.4968 15.4799 22.332 15.8779L24.1328 18.0244C24.3974 18.3397 24.1892 18.8214 23.7783 18.8447L16.7334 19.2441C16.3992 19.263 16.1411 18.9545 16.2188 18.6289L17.8525 11.7812Z" fill="#FF9066"/>
</svg>
